<?xml version="1.0" encoding="UTF-8" standalone="no"?>
<!DOCTYPE svg PUBLIC "-//W3C//DTD SVG 1.1//EN"
    "http://www.w3.org/Graphics/SVG/1.1/DTD/svg11.dtd">
<!-- Generated by graphviz version 2.43.0 (0)
 -->
<!-- Title: HasaMindMapTree Pages: 1 -->
<svg width="616pt" height="1054pt"
     viewBox="0.00 0.00 616.00 1054.00" xmlns="http://www.w3.org/2000/svg">
    <g id="graph0" class="graph" transform="scale(1 1) rotate(0) translate(4 1050)">
        <title>HasaMindMapTree</title>
        <polygon fill="#fff8dc" stroke="transparent" points="-4,4 -4,-1050 612,-1050 612,4 -4,4"/>
        <!-- hasa -->
        <g id="node1" class="node">
            <title>hasa</title>
            <polygon fill="#a0e5a0" stroke="black" stroke-width="1.5" points="79,-506 0,-506 0,-484 79,-484 79,-506"/>
            <text text-anchor="middle" x="39.5" y="-492.5" font-family="Helvetica,Arial,sans-serif" font-size="10.00">
                Hasa
            </text>
        </g>
        <!-- similarity -->
        <g id="node2" class="node">
            <title>similarity</title>
            <polygon fill="#5dade2" stroke="black" stroke-width="1.5" stroke-dasharray="5,2"
                     points="201,-944 122,-944 122,-922 201,-922 201,-944"/>
            <text text-anchor="middle" x="161.5" y="-930.5" font-family="Helvetica,Arial,sans-serif" font-size="10.00">
                Similarity
            </text>
        </g>
        <!-- hasa&#45;&gt;similarity -->
        <g id="edge1" class="edge">
            <title>hasa&#45;&gt;similarity</title>
            <path fill="none" stroke="black" d="M43.59,-506.27C59.6,-564.72 133.3,-833.7 154.67,-911.73"/>
            <polygon fill="black" stroke="black" points="151.42,-913.09 157.43,-921.81 158.17,-911.24 151.42,-913.09"/>
        </g>
        <!-- distance -->
        <g id="node3" class="node">
            <title>distance</title>
            <polygon fill="#f1948a" stroke="black" stroke-width="1.5" stroke-dasharray="5,2"
                     points="201,-738 122,-738 122,-716 201,-716 201,-738"/>
            <text text-anchor="middle" x="161.5" y="-724.5" font-family="Helvetica,Arial,sans-serif" font-size="10.00">
                Distance
            </text>
        </g>
        <!-- hasa&#45;&gt;distance -->
        <g id="edge2" class="edge">
            <title>hasa&#45;&gt;distance</title>
            <path fill="none" stroke="black" d="M46.29,-506.19C65.26,-542.86 125.73,-659.78 150.14,-706.97"/>
            <polygon fill="black" stroke="black" points="147.07,-708.65 154.77,-715.92 153.28,-705.43 147.07,-708.65"/>
        </g>
        <!-- alignment -->
        <g id="node4" class="node">
            <title>alignment</title>
            <polygon fill="#af7ac5" stroke="black" stroke-width="1.5" stroke-dasharray="5,2"
                     points="201,-506 122,-506 122,-484 201,-484 201,-506"/>
            <text text-anchor="middle" x="161.5" y="-492.5" font-family="Helvetica,Arial,sans-serif" font-size="10.00">
                Alignment
            </text>
        </g>
        <!-- hasa&#45;&gt;alignment -->
        <g id="edge3" class="edge">
            <title>hasa&#45;&gt;alignment</title>
            <path fill="none" stroke="black" d="M79.13,-495C89.51,-495 100.88,-495 111.74,-495"/>
            <polygon fill="black" stroke="black" points="111.94,-498.5 121.94,-495 111.94,-491.5 111.94,-498.5"/>
        </g>
        <!-- search -->
        <g id="node5" class="node">
            <title>search</title>
            <polygon fill="#f9e79f" stroke="black" stroke-width="1.5" stroke-dasharray="5,2"
                     points="201,-328 122,-328 122,-306 201,-306 201,-328"/>
            <text text-anchor="middle" x="161.5" y="-314.5" font-family="Helvetica,Arial,sans-serif" font-size="10.00">
                Search
            </text>
        </g>
        <!-- hasa&#45;&gt;search -->
        <g id="edge4" class="edge">
            <title>hasa&#45;&gt;search</title>
            <path fill="none" stroke="black" d="M48.01,-483.87C67.87,-454.4 122.02,-374.07 147.25,-336.66"/>
            <polygon fill="black" stroke="black" points="150.31,-338.38 153,-328.13 144.5,-334.47 150.31,-338.38"/>
        </g>
        <!-- misc -->
        <g id="node6" class="node">
            <title>misc</title>
            <polygon fill="#76d7c4" stroke="black" stroke-width="1.5" stroke-dasharray="5,2"
                     points="201,-201 122,-201 122,-179 201,-179 201,-201"/>
            <text text-anchor="middle" x="161.5" y="-187.5" font-family="Helvetica,Arial,sans-serif" font-size="10.00">
                Misc
            </text>
        </g>
        <!-- hasa&#45;&gt;misc -->
        <g id="edge5" class="edge">
            <title>hasa&#45;&gt;misc</title>
            <path fill="none" stroke="black" d="M44.91,-483.78C62.66,-438.67 129.01,-270.04 152.33,-210.76"/>
            <polygon fill="black" stroke="black" points="155.64,-211.91 156.05,-201.32 149.13,-209.34 155.64,-211.91"/>
        </g>
        <!-- sim1 -->
        <g id="node7" class="node">
            <title>sim1</title>
            <path fill="#d6eaf8" stroke="black" stroke-width="1.5"
                  d="M324.17,-1046C324.17,-1046 259.83,-1046 259.83,-1046 256.17,-1046 252.5,-1042.33 252.5,-1038.67 252.5,-1038.67 252.5,-1031.33 252.5,-1031.33 252.5,-1027.67 256.17,-1024 259.83,-1024 259.83,-1024 324.17,-1024 324.17,-1024 327.83,-1024 331.5,-1027.67 331.5,-1031.33 331.5,-1031.33 331.5,-1038.67 331.5,-1038.67 331.5,-1042.33 327.83,-1046 324.17,-1046"/>
            <text text-anchor="middle" x="292" y="-1032.5" font-family="Helvetica,Arial,sans-serif" font-size="10.00">
                Jaccard
            </text>
        </g>
        <!-- similarity&#45;&gt;sim1 -->
        <g id="edge6" class="edge">
            <title>similarity&#45;&gt;sim1</title>
            <path fill="none" stroke="black"
                  d="M172.5,-944.19C187.13,-960.13 215.7,-989.67 244,-1010 248.5,-1013.24 253.48,-1016.33 258.46,-1019.17"/>
            <polygon fill="black" stroke="black"
                     points="256.86,-1022.28 267.32,-1023.98 260.2,-1016.13 256.86,-1022.28"/>
        </g>
        <!-- sim2 -->
        <g id="node8" class="node">
            <title>sim2</title>
            <path fill="#d6eaf8" stroke="black" stroke-width="1.5"
                  d="M324.17,-995C324.17,-995 259.83,-995 259.83,-995 256.17,-995 252.5,-991.33 252.5,-987.67 252.5,-987.67 252.5,-980.33 252.5,-980.33 252.5,-976.67 256.17,-973 259.83,-973 259.83,-973 324.17,-973 324.17,-973 327.83,-973 331.5,-976.67 331.5,-980.33 331.5,-980.33 331.5,-987.67 331.5,-987.67 331.5,-991.33 327.83,-995 324.17,-995"/>
            <text text-anchor="middle" x="292" y="-981.5" font-family="Helvetica,Arial,sans-serif" font-size="10.00">
                Jaro&#45;Winkler
            </text>
        </g>
        <!-- similarity&#45;&gt;sim2 -->
        <g id="edge7" class="edge">
            <title>similarity&#45;&gt;sim2</title>
            <path fill="none" stroke="black" d="M190.38,-944.07C208.91,-951.42 233.44,-961.16 253.65,-969.17"/>
            <polygon fill="black" stroke="black" points="252.59,-972.52 263.17,-972.96 255.17,-966.01 252.59,-972.52"/>
        </g>
        <!-- sim3 -->
        <g id="node9" class="node">
            <title>sim3</title>
            <path fill="#d6eaf8" stroke="black" stroke-width="1.5"
                  d="M332.67,-944C332.67,-944 251.33,-944 251.33,-944 247.67,-944 244,-940.33 244,-936.67 244,-936.67 244,-929.33 244,-929.33 244,-925.67 247.67,-922 251.33,-922 251.33,-922 332.67,-922 332.67,-922 336.33,-922 340,-925.67 340,-929.33 340,-929.33 340,-936.67 340,-936.67 340,-940.33 336.33,-944 332.67,-944"/>
            <text text-anchor="middle" x="292" y="-930.5" font-family="Helvetica,Arial,sans-serif" font-size="10.00">LCS
                (Subsequence)
            </text>
        </g>
        <!-- similarity&#45;&gt;sim3 -->
        <g id="edge8" class="edge">
            <title>similarity&#45;&gt;sim3</title>
            <path fill="none" stroke="black" d="M201.05,-933C211.36,-933 222.71,-933 233.79,-933"/>
            <polygon fill="black" stroke="black" points="233.84,-936.5 243.84,-933 233.84,-929.5 233.84,-936.5"/>
        </g>
        <!-- sim4 -->
        <g id="node10" class="node">
            <title>sim4</title>
            <path fill="#d6eaf8" stroke="black" stroke-width="1.5"
                  d="M324.17,-893C324.17,-893 259.83,-893 259.83,-893 256.17,-893 252.5,-889.33 252.5,-885.67 252.5,-885.67 252.5,-878.33 252.5,-878.33 252.5,-874.67 256.17,-871 259.83,-871 259.83,-871 324.17,-871 324.17,-871 327.83,-871 331.5,-874.67 331.5,-878.33 331.5,-878.33 331.5,-885.67 331.5,-885.67 331.5,-889.33 327.83,-893 324.17,-893"/>
            <text text-anchor="middle" x="292" y="-879.5" font-family="Helvetica,Arial,sans-serif" font-size="10.00">
                Cosine
            </text>
        </g>
        <!-- similarity&#45;&gt;sim4 -->
        <g id="edge9" class="edge">
            <title>similarity&#45;&gt;sim4</title>
            <path fill="none" stroke="black" d="M190.38,-921.93C208.91,-914.58 233.44,-904.84 253.65,-896.83"/>
            <polygon fill="black" stroke="black" points="255.17,-899.99 263.17,-893.04 252.59,-893.48 255.17,-899.99"/>
        </g>
        <!-- dist1 -->
        <g id="node11" class="node">
            <title>dist1</title>
            <path fill="#fadbd8" stroke="black" stroke-width="1.5"
                  d="M324.17,-842C324.17,-842 259.83,-842 259.83,-842 256.17,-842 252.5,-838.33 252.5,-834.67 252.5,-834.67 252.5,-827.33 252.5,-827.33 252.5,-823.67 256.17,-820 259.83,-820 259.83,-820 324.17,-820 324.17,-820 327.83,-820 331.5,-823.67 331.5,-827.33 331.5,-827.33 331.5,-834.67 331.5,-834.67 331.5,-838.33 327.83,-842 324.17,-842"/>
            <text text-anchor="middle" x="292" y="-828.5" font-family="Helvetica,Arial,sans-serif" font-size="10.00">
                Levenshtein
            </text>
        </g>
        <!-- distance&#45;&gt;dist1 -->
        <g id="edge10" class="edge">
            <title>distance&#45;&gt;dist1</title>
            <path fill="none" stroke="black"
                  d="M172.2,-738.23C186.68,-754.55 215.33,-785.12 244,-806 248.28,-809.12 253,-812.09 257.74,-814.83"/>
            <polygon fill="black" stroke="black" points="256.34,-818.05 266.79,-819.78 259.7,-811.91 256.34,-818.05"/>
        </g>
        <!-- dist2 -->
        <g id="node12" class="node">
            <title>dist2</title>
            <path fill="#fadbd8" stroke="black" stroke-width="1.5"
                  d="M324.17,-791C324.17,-791 259.83,-791 259.83,-791 256.17,-791 252.5,-787.33 252.5,-783.67 252.5,-783.67 252.5,-776.33 252.5,-776.33 252.5,-772.67 256.17,-769 259.83,-769 259.83,-769 324.17,-769 324.17,-769 327.83,-769 331.5,-772.67 331.5,-776.33 331.5,-776.33 331.5,-783.67 331.5,-783.67 331.5,-787.33 327.83,-791 324.17,-791"/>
            <text text-anchor="middle" x="292" y="-777.5" font-family="Helvetica,Arial,sans-serif" font-size="10.00">
                Hamming
            </text>
        </g>
        <!-- distance&#45;&gt;dist2 -->
        <g id="edge11" class="edge">
            <title>distance&#45;&gt;dist2</title>
            <path fill="none" stroke="black" d="M189.44,-738.11C208.37,-745.92 233.92,-756.46 254.65,-765.01"/>
            <polygon fill="black" stroke="black" points="253.52,-768.33 264.1,-768.9 256.19,-761.86 253.52,-768.33"/>
        </g>
        <!-- dist3 -->
        <g id="node13" class="node">
            <title>dist3</title>
            <path fill="#fadbd8" stroke="black" stroke-width="1.5"
                  d="M322.83,-740C322.83,-740 261.17,-740 261.17,-740 256.83,-740 252.5,-735.67 252.5,-731.33 252.5,-731.33 252.5,-722.67 252.5,-722.67 252.5,-718.33 256.83,-714 261.17,-714 261.17,-714 322.83,-714 322.83,-714 327.17,-714 331.5,-718.33 331.5,-722.67 331.5,-722.67 331.5,-731.33 331.5,-731.33 331.5,-735.67 327.17,-740 322.83,-740"/>
            <text text-anchor="middle" x="292" y="-730" font-family="Helvetica,Arial,sans-serif" font-size="10.00">
                Damerau&#45;
            </text>
            <text text-anchor="middle" x="292" y="-719" font-family="Helvetica,Arial,sans-serif" font-size="10.00">
                Levenshtein
            </text>
        </g>
        <!-- distance&#45;&gt;dist3 -->
        <g id="edge12" class="edge">
            <title>distance&#45;&gt;dist3</title>
            <path fill="none" stroke="black" d="M201.05,-727C214.01,-727 228.64,-727 242.28,-727"/>
            <polygon fill="black" stroke="black" points="242.47,-730.5 252.47,-727 242.47,-723.5 242.47,-730.5"/>
        </g>
        <!-- dist4 -->
        <g id="node14" class="node">
            <title>dist4</title>
            <path fill="#fadbd8" stroke="black" stroke-width="1.5"
                  d="M324.17,-685C324.17,-685 259.83,-685 259.83,-685 256.17,-685 252.5,-681.33 252.5,-677.67 252.5,-677.67 252.5,-670.33 252.5,-670.33 252.5,-666.67 256.17,-663 259.83,-663 259.83,-663 324.17,-663 324.17,-663 327.83,-663 331.5,-666.67 331.5,-670.33 331.5,-670.33 331.5,-677.67 331.5,-677.67 331.5,-681.33 327.83,-685 324.17,-685"/>
            <text text-anchor="middle" x="292" y="-671.5" font-family="Helvetica,Arial,sans-serif" font-size="10.00">
                Jaccard
            </text>
        </g>
        <!-- distance&#45;&gt;dist4 -->
        <g id="edge13" class="edge">
            <title>distance&#45;&gt;dist4</title>
            <path fill="none" stroke="black" d="M189.44,-715.89C208.37,-708.08 233.92,-697.54 254.65,-688.99"/>
            <polygon fill="black" stroke="black" points="256.19,-692.14 264.1,-685.1 253.52,-685.67 256.19,-692.14"/>
        </g>
        <!-- align1 -->
        <g id="node15" class="node">
            <title>align1</title>
            <path fill="#e8daef" stroke="black" stroke-width="1.5"
                  d="M325.17,-634C325.17,-634 258.83,-634 258.83,-634 255.17,-634 251.5,-630.33 251.5,-626.67 251.5,-626.67 251.5,-619.33 251.5,-619.33 251.5,-615.67 255.17,-612 258.83,-612 258.83,-612 325.17,-612 325.17,-612 328.83,-612 332.5,-615.67 332.5,-619.33 332.5,-619.33 332.5,-626.67 332.5,-626.67 332.5,-630.33 328.83,-634 325.17,-634"/>
            <text text-anchor="middle" x="292" y="-620.5" font-family="Helvetica,Arial,sans-serif" font-size="10.00">
                Smith&#45;Waterman
            </text>
        </g>
        <!-- alignment&#45;&gt;align1 -->
        <g id="edge14" class="edge">
            <title>alignment&#45;&gt;align1</title>
            <path fill="none" stroke="black"
                  d="M169.13,-506.15C181.65,-526.5 210.55,-570.1 244,-598 247.79,-601.16 252.05,-604.1 256.41,-606.75"/>
            <polygon fill="black" stroke="black" points="254.97,-609.96 265.4,-611.82 258.41,-603.86 254.97,-609.96"/>
        </g>
        <!-- align2 -->
        <g id="node16" class="node">
            <title>align2</title>
            <path fill="#e8daef" stroke="black" stroke-width="1.5"
                  d="M332.67,-583C332.67,-583 251.33,-583 251.33,-583 247.67,-583 244,-579.33 244,-575.67 244,-575.67 244,-568.33 244,-568.33 244,-564.67 247.67,-561 251.33,-561 251.33,-561 332.67,-561 332.67,-561 336.33,-561 340,-564.67 340,-568.33 340,-568.33 340,-575.67 340,-575.67 340,-579.33 336.33,-583 332.67,-583"/>
            <text text-anchor="middle" x="292" y="-569.5" font-family="Helvetica,Arial,sans-serif" font-size="10.00">
                Needleman&#45;Wunsch
            </text>
        </g>
        <!-- alignment&#45;&gt;align2 -->
        <g id="edge15" class="edge">
            <title>alignment&#45;&gt;align2</title>
            <path fill="none" stroke="black"
                  d="M179.12,-506.15C195.42,-516.96 221.1,-533.63 244,-547 249.22,-550.04 254.83,-553.16 260.3,-556.12"/>
            <polygon fill="black" stroke="black" points="258.81,-559.29 269.28,-560.9 262.1,-553.11 258.81,-559.29"/>
        </g>
        <!-- align3 -->
        <g id="node17" class="node">
            <title>align3</title>
            <path fill="#e8daef" stroke="black" stroke-width="1.5"
                  d="M324.17,-532C324.17,-532 259.83,-532 259.83,-532 256.17,-532 252.5,-528.33 252.5,-524.67 252.5,-524.67 252.5,-517.33 252.5,-517.33 252.5,-513.67 256.17,-510 259.83,-510 259.83,-510 324.17,-510 324.17,-510 327.83,-510 331.5,-513.67 331.5,-517.33 331.5,-517.33 331.5,-524.67 331.5,-524.67 331.5,-528.33 327.83,-532 324.17,-532"/>
            <text text-anchor="middle" x="292" y="-518.5" font-family="Helvetica,Arial,sans-serif" font-size="10.00">
                Hirschberg&#39;s
            </text>
        </g>
        <!-- alignment&#45;&gt;align3 -->
        <g id="edge16" class="edge">
            <title>alignment&#45;&gt;align3</title>
            <path fill="none" stroke="black" d="M201.05,-502.8C214.01,-505.42 228.64,-508.38 242.28,-511.14"/>
            <polygon fill="black" stroke="black" points="241.98,-514.65 252.47,-513.2 243.37,-507.79 241.98,-514.65"/>
        </g>
        <!-- align4 -->
        <g id="node18" class="node">
            <title>align4</title>
            <path fill="#e8daef" stroke="black" stroke-width="1.5"
                  d="M324.17,-481C324.17,-481 259.83,-481 259.83,-481 256.17,-481 252.5,-477.33 252.5,-473.67 252.5,-473.67 252.5,-466.33 252.5,-466.33 252.5,-462.67 256.17,-459 259.83,-459 259.83,-459 324.17,-459 324.17,-459 327.83,-459 331.5,-462.67 331.5,-466.33 331.5,-466.33 331.5,-473.67 331.5,-473.67 331.5,-477.33 327.83,-481 324.17,-481"/>
            <text text-anchor="middle" x="292" y="-467.5" font-family="Helvetica,Arial,sans-serif" font-size="10.00">LCS
                (Substring)
            </text>
        </g>
        <!-- alignment&#45;&gt;align4 -->
        <g id="edge17" class="edge">
            <title>alignment&#45;&gt;align4</title>
            <path fill="none" stroke="black" d="M201.05,-487.5C214.01,-484.98 228.64,-482.13 242.28,-479.48"/>
            <polygon fill="black" stroke="black" points="243.33,-482.84 252.47,-477.5 241.99,-475.97 243.33,-482.84"/>
        </g>
        <!-- align5 -->
        <g id="node19" class="node">
            <title>align5</title>
            <path fill="#e8daef" stroke="black" stroke-width="1.5"
                  d="M332.67,-430C332.67,-430 251.33,-430 251.33,-430 247.67,-430 244,-426.33 244,-422.67 244,-422.67 244,-415.33 244,-415.33 244,-411.67 247.67,-408 251.33,-408 251.33,-408 332.67,-408 332.67,-408 336.33,-408 340,-411.67 340,-415.33 340,-415.33 340,-422.67 340,-422.67 340,-426.33 336.33,-430 332.67,-430"/>
            <text text-anchor="middle" x="292" y="-416.5" font-family="Helvetica,Arial,sans-serif" font-size="10.00">LCS
                (Subsequence)
            </text>
        </g>
        <!-- alignment&#45;&gt;align5 -->
        <g id="edge18" class="edge">
            <title>alignment&#45;&gt;align5</title>
            <path fill="none" stroke="black"
                  d="M180.17,-483.84C196.58,-473.55 221.77,-457.96 244,-445 249.6,-441.73 255.63,-438.32 261.44,-435.09"/>
            <polygon fill="black" stroke="black" points="263.24,-438.09 270.3,-430.19 259.85,-431.97 263.24,-438.09"/>
        </g>
        <!-- align6 -->
        <g id="node20" class="node">
            <title>align6</title>
            <path fill="#e8daef" stroke="black" stroke-width="1.5"
                  d="M324.17,-379C324.17,-379 259.83,-379 259.83,-379 256.17,-379 252.5,-375.33 252.5,-371.67 252.5,-371.67 252.5,-364.33 252.5,-364.33 252.5,-360.67 256.17,-357 259.83,-357 259.83,-357 324.17,-357 324.17,-357 327.83,-357 331.5,-360.67 331.5,-364.33 331.5,-364.33 331.5,-371.67 331.5,-371.67 331.5,-375.33 327.83,-379 324.17,-379"/>
            <text text-anchor="middle" x="292" y="-365.5" font-family="Helvetica,Arial,sans-serif" font-size="10.00">
                DTW
            </text>
        </g>
        <!-- alignment&#45;&gt;align6 -->
        <g id="edge19" class="edge">
            <title>alignment&#45;&gt;align6</title>
            <path fill="none" stroke="black"
                  d="M169.42,-483.81C182.2,-463.83 211.22,-421.53 244,-394 248.28,-390.4 253.14,-387.06 258.07,-384.06"/>
            <polygon fill="black" stroke="black" points="259.95,-387.02 266.9,-379.03 256.48,-380.93 259.95,-387.02"/>
        </g>
        <!-- search_lexical -->
        <g id="node21" class="node">
            <title>search_lexical</title>
            <polygon fill="#fcf3cf" stroke="black" stroke-width="1.5" stroke-dasharray="5,2"
                     points="331.5,-328 252.5,-328 252.5,-306 331.5,-306 331.5,-328"/>
            <text text-anchor="middle" x="292" y="-314.5" font-family="Helvetica,Arial,sans-serif" font-size="10.00">
                Lexical
            </text>
        </g>
        <!-- search&#45;&gt;search_lexical -->
        <g id="edge20" class="edge">
            <title>search&#45;&gt;search_lexical</title>
            <path fill="none" stroke="black" d="M201.05,-317C214.01,-317 228.64,-317 242.28,-317"/>
            <polygon fill="black" stroke="black" points="242.47,-320.5 252.47,-317 242.47,-313.5 242.47,-320.5"/>
        </g>
        <!-- search_semantic -->
        <g id="node22" class="node">
            <title>search_semantic</title>
            <polygon fill="#fcf3cf" stroke="black" stroke-width="1.5" stroke-dasharray="5,2"
                     points="331.5,-277 252.5,-277 252.5,-255 331.5,-255 331.5,-277"/>
            <text text-anchor="middle" x="292" y="-263.5" font-family="Helvetica,Arial,sans-serif" font-size="10.00">
                Semantic
            </text>
        </g>
        <!-- search&#45;&gt;search_semantic -->
        <g id="edge21" class="edge">
            <title>search&#45;&gt;search_semantic</title>
            <path fill="none" stroke="black" d="M190.38,-305.93C208.91,-298.58 233.44,-288.84 253.65,-280.83"/>
            <polygon fill="black" stroke="black" points="255.17,-283.99 263.17,-277.04 252.59,-277.48 255.17,-283.99"/>
        </g>
        <!-- misc_embed -->
        <g id="node27" class="node">
            <title>misc_embed</title>
            <polygon fill="#a9dfbf" stroke="black" stroke-width="1.5" stroke-dasharray="5,2"
                     points="331.5,-201 252.5,-201 252.5,-179 331.5,-179 331.5,-201"/>
            <text text-anchor="middle" x="292" y="-187.5" font-family="Helvetica,Arial,sans-serif" font-size="10.00">
                Embeddings
            </text>
        </g>
        <!-- misc&#45;&gt;misc_embed -->
        <g id="edge26" class="edge">
            <title>misc&#45;&gt;misc_embed</title>
            <path fill="none" stroke="black" d="M201.05,-190C214.01,-190 228.64,-190 242.28,-190"/>
            <polygon fill="black" stroke="black" points="242.47,-193.5 252.47,-190 242.47,-186.5 242.47,-193.5"/>
        </g>
        <!-- misc_eval -->
        <g id="node28" class="node">
            <title>misc_eval</title>
            <polygon fill="#a9dfbf" stroke="black" stroke-width="1.5" stroke-dasharray="5,2"
                     points="331.5,-99 252.5,-99 252.5,-77 331.5,-77 331.5,-99"/>
            <text text-anchor="middle" x="292" y="-85.5" font-family="Helvetica,Arial,sans-serif" font-size="10.00">
                Evaluation
            </text>
        </g>
        <!-- misc&#45;&gt;misc_eval -->
        <g id="edge27" class="edge">
            <title>misc&#45;&gt;misc_eval</title>
            <path fill="none" stroke="black" d="M176.74,-178.69C199.15,-160.91 242.79,-126.27 269.17,-105.33"/>
            <polygon fill="black" stroke="black" points="271.43,-108 277.08,-99.05 267.08,-102.52 271.43,-108"/>
        </g>
        <!-- rk -->
        <g id="node23" class="node">
            <title>rk</title>
            <path fill="#fef9e7" stroke="black" stroke-width="1.5"
                  d="M459.17,-430C459.17,-430 394.83,-430 394.83,-430 391.17,-430 387.5,-426.33 387.5,-422.67 387.5,-422.67 387.5,-415.33 387.5,-415.33 387.5,-411.67 391.17,-408 394.83,-408 394.83,-408 459.17,-408 459.17,-408 462.83,-408 466.5,-411.67 466.5,-415.33 466.5,-415.33 466.5,-422.67 466.5,-422.67 466.5,-426.33 462.83,-430 459.17,-430"/>
            <text text-anchor="middle" x="427" y="-416.5" font-family="Helvetica,Arial,sans-serif" font-size="10.00">
                Rabin&#45;Karp
            </text>
        </g>
        <!-- search_lexical&#45;&gt;rk -->
        <g id="edge22" class="edge">
            <title>search_lexical&#45;&gt;rk</title>
            <path fill="none" stroke="black"
                  d="M317.02,-328.11C324.74,-332.24 333.08,-337.32 340,-343 362.91,-361.82 360.29,-374.94 383,-394 386.69,-397.1 390.82,-400.04 395.01,-402.73"/>
            <polygon fill="black" stroke="black" points="393.23,-405.75 403.6,-407.91 396.84,-399.75 393.23,-405.75"/>
        </g>
        <!-- bm -->
        <g id="node24" class="node">
            <title>bm</title>
            <path fill="#fef9e7" stroke="black" stroke-width="1.5"
                  d="M459.17,-379C459.17,-379 394.83,-379 394.83,-379 391.17,-379 387.5,-375.33 387.5,-371.67 387.5,-371.67 387.5,-364.33 387.5,-364.33 387.5,-360.67 391.17,-357 394.83,-357 394.83,-357 459.17,-357 459.17,-357 462.83,-357 466.5,-360.67 466.5,-364.33 466.5,-364.33 466.5,-371.67 466.5,-371.67 466.5,-375.33 462.83,-379 459.17,-379"/>
            <text text-anchor="middle" x="427" y="-365.5" font-family="Helvetica,Arial,sans-serif" font-size="10.00">
                Boyer&#45;Moore
            </text>
        </g>
        <!-- search_lexical&#45;&gt;bm -->
        <g id="edge23" class="edge">
            <title>search_lexical&#45;&gt;bm</title>
            <path fill="none" stroke="black" d="M321.86,-328.07C341.12,-335.45 366.66,-345.24 387.62,-353.28"/>
            <polygon fill="black" stroke="black" points="386.61,-356.64 397.2,-356.96 389.11,-350.11 386.61,-356.64"/>
        </g>
        <!-- kmp -->
        <g id="node25" class="node">
            <title>kmp</title>
            <path fill="#fef9e7" stroke="black" stroke-width="1.5"
                  d="M463.67,-328C463.67,-328 390.33,-328 390.33,-328 386.67,-328 383,-324.33 383,-320.67 383,-320.67 383,-313.33 383,-313.33 383,-309.67 386.67,-306 390.33,-306 390.33,-306 463.67,-306 463.67,-306 467.33,-306 471,-309.67 471,-313.33 471,-313.33 471,-320.67 471,-320.67 471,-324.33 467.33,-328 463.67,-328"/>
            <text text-anchor="middle" x="427" y="-314.5" font-family="Helvetica,Arial,sans-serif" font-size="10.00">
                Knuth&#45;Morris&#45;Pratt
            </text>
        </g>
        <!-- search_lexical&#45;&gt;kmp -->
        <g id="edge24" class="edge">
            <title>search_lexical&#45;&gt;kmp</title>
            <path fill="none" stroke="black" d="M331.83,-317C344.54,-317 358.89,-317 372.48,-317"/>
            <polygon fill="black" stroke="black" points="372.69,-320.5 382.69,-317 372.69,-313.5 372.69,-320.5"/>
        </g>
        <!-- faiss -->
        <g id="node26" class="node">
            <title>faiss</title>
            <path fill="#fef9e7" stroke="black" stroke-width="1.5"
                  d="M459.17,-277C459.17,-277 394.83,-277 394.83,-277 391.17,-277 387.5,-273.33 387.5,-269.67 387.5,-269.67 387.5,-262.33 387.5,-262.33 387.5,-258.67 391.17,-255 394.83,-255 394.83,-255 459.17,-255 459.17,-255 462.83,-255 466.5,-258.67 466.5,-262.33 466.5,-262.33 466.5,-269.67 466.5,-269.67 466.5,-273.33 462.83,-277 459.17,-277"/>
            <text text-anchor="middle" x="427" y="-263.5" font-family="Helvetica,Arial,sans-serif" font-size="10.00">
                Faiss&#45;based
            </text>
        </g>
        <!-- search_semantic&#45;&gt;faiss -->
        <g id="edge25" class="edge">
            <title>search_semantic&#45;&gt;faiss</title>
            <path fill="none" stroke="black" d="M331.83,-266C346.03,-266 362.28,-266 377.25,-266"/>
            <polygon fill="black" stroke="black" points="377.36,-269.5 387.36,-266 377.35,-262.5 377.36,-269.5"/>
        </g>
        <!-- embed_word -->
        <g id="node29" class="node">
            <title>embed_word</title>
            <polygon fill="#d5f5e3" stroke="black" stroke-width="1.5" stroke-dasharray="5,2"
                     points="466.5,-226 387.5,-226 387.5,-204 466.5,-204 466.5,-226"/>
            <text text-anchor="middle" x="427" y="-212.5" font-family="Helvetica,Arial,sans-serif" font-size="10.00">
                Word
            </text>
        </g>
        <!-- misc_embed&#45;&gt;embed_word -->
        <g id="edge28" class="edge">
            <title>misc_embed&#45;&gt;embed_word</title>
            <path fill="none" stroke="black" d="M331.83,-197.3C346.03,-199.97 362.28,-203.02 377.25,-205.84"/>
            <polygon fill="black" stroke="black" points="376.88,-209.33 387.36,-207.74 378.17,-202.45 376.88,-209.33"/>
        </g>
        <!-- embed_sent -->
        <g id="node30" class="node">
            <title>embed_sent</title>
            <polygon fill="#d5f5e3" stroke="black" stroke-width="1.5" stroke-dasharray="5,2"
                     points="466.5,-175 387.5,-175 387.5,-153 466.5,-153 466.5,-175"/>
            <text text-anchor="middle" x="427" y="-161.5" font-family="Helvetica,Arial,sans-serif" font-size="10.00">
                Sentence
            </text>
        </g>
        <!-- misc_embed&#45;&gt;embed_sent -->
        <g id="edge29" class="edge">
            <title>misc_embed&#45;&gt;embed_sent</title>
            <path fill="none" stroke="black" d="M331.83,-182.41C346.03,-179.63 362.28,-176.46 377.25,-173.53"/>
            <polygon fill="black" stroke="black" points="378.21,-176.91 387.36,-171.55 376.87,-170.04 378.21,-176.91"/>
        </g>
        <!-- em -->
        <g id="node35" class="node">
            <title>em</title>
            <path fill="#ebfcea" stroke="black" stroke-width="1.5"
                  d="M459.17,-124C459.17,-124 394.83,-124 394.83,-124 391.17,-124 387.5,-120.33 387.5,-116.67 387.5,-116.67 387.5,-109.33 387.5,-109.33 387.5,-105.67 391.17,-102 394.83,-102 394.83,-102 459.17,-102 459.17,-102 462.83,-102 466.5,-105.67 466.5,-109.33 466.5,-109.33 466.5,-116.67 466.5,-116.67 466.5,-120.33 462.83,-124 459.17,-124"/>
            <text text-anchor="middle" x="427" y="-110.5" font-family="Helvetica,Arial,sans-serif" font-size="10.00">
                Exact Match
            </text>
        </g>
        <!-- misc_eval&#45;&gt;em -->
        <g id="edge34" class="edge">
            <title>misc_eval&#45;&gt;em</title>
            <path fill="none" stroke="black" d="M331.83,-95.3C346.03,-97.97 362.28,-101.02 377.25,-103.84"/>
            <polygon fill="black" stroke="black" points="376.88,-107.33 387.36,-105.74 378.17,-100.45 376.88,-107.33"/>
        </g>
        <!-- rouge -->
        <g id="node36" class="node">
            <title>rouge</title>
            <path fill="#ebfcea" stroke="black" stroke-width="1.5"
                  d="M459.17,-73C459.17,-73 394.83,-73 394.83,-73 391.17,-73 387.5,-69.33 387.5,-65.67 387.5,-65.67 387.5,-58.33 387.5,-58.33 387.5,-54.67 391.17,-51 394.83,-51 394.83,-51 459.17,-51 459.17,-51 462.83,-51 466.5,-54.67 466.5,-58.33 466.5,-58.33 466.5,-65.67 466.5,-65.67 466.5,-69.33 462.83,-73 459.17,-73"/>
            <text text-anchor="middle" x="427" y="-59.5" font-family="Helvetica,Arial,sans-serif" font-size="10.00">
                ROUGE
            </text>
        </g>
        <!-- misc_eval&#45;&gt;rouge -->
        <g id="edge35" class="edge">
            <title>misc_eval&#45;&gt;rouge</title>
            <path fill="none" stroke="black" d="M331.83,-80.41C346.03,-77.63 362.28,-74.46 377.25,-71.53"/>
            <polygon fill="black" stroke="black" points="378.21,-74.91 387.36,-69.55 376.87,-68.04 378.21,-74.91"/>
        </g>
        <!-- sbleu -->
        <g id="node37" class="node">
            <title>sbleu</title>
            <path fill="#ebfcea" stroke="black" stroke-width="1.5"
                  d="M459.17,-22C459.17,-22 394.83,-22 394.83,-22 391.17,-22 387.5,-18.33 387.5,-14.67 387.5,-14.67 387.5,-7.33 387.5,-7.33 387.5,-3.67 391.17,0 394.83,0 394.83,0 459.17,0 459.17,0 462.83,0 466.5,-3.67 466.5,-7.33 466.5,-7.33 466.5,-14.67 466.5,-14.67 466.5,-18.33 462.83,-22 459.17,-22"/>
            <text text-anchor="middle" x="427" y="-8.5" font-family="Helvetica,Arial,sans-serif" font-size="10.00">
                sBLEU
            </text>
        </g>
        <!-- misc_eval&#45;&gt;sbleu -->
        <g id="edge36" class="edge">
            <title>misc_eval&#45;&gt;sbleu</title>
            <path fill="none" stroke="black" d="M312.06,-76.97C334.57,-63.93 372.24,-42.13 398.05,-27.18"/>
            <polygon fill="black" stroke="black" points="400.08,-30.05 406.98,-22.01 396.57,-23.99 400.08,-30.05"/>
        </g>
        <!-- glove -->
        <g id="node31" class="node">
            <title>glove</title>
            <path fill="#ebfcea" stroke="black" stroke-width="1.5"
                  d="M593.17,-277C593.17,-277 528.83,-277 528.83,-277 525.17,-277 521.5,-273.33 521.5,-269.67 521.5,-269.67 521.5,-262.33 521.5,-262.33 521.5,-258.67 525.17,-255 528.83,-255 528.83,-255 593.17,-255 593.17,-255 596.83,-255 600.5,-258.67 600.5,-262.33 600.5,-262.33 600.5,-269.67 600.5,-269.67 600.5,-273.33 596.83,-277 593.17,-277"/>
            <text text-anchor="middle" x="561" y="-263.5" font-family="Helvetica,Arial,sans-serif" font-size="10.00">
                GloVe
            </text>
        </g>
        <!-- embed_word&#45;&gt;glove -->
        <g id="edge30" class="edge">
            <title>embed_word&#45;&gt;glove</title>
            <path fill="none" stroke="black" d="M456.64,-226.07C475.76,-233.45 501.1,-243.24 521.91,-251.28"/>
            <polygon fill="black" stroke="black" points="520.82,-254.62 531.41,-254.96 523.35,-248.09 520.82,-254.62"/>
        </g>
        <!-- fasttext -->
        <g id="node32" class="node">
            <title>fasttext</title>
            <path fill="#ebfcea" stroke="black" stroke-width="1.5"
                  d="M593.17,-226C593.17,-226 528.83,-226 528.83,-226 525.17,-226 521.5,-222.33 521.5,-218.67 521.5,-218.67 521.5,-211.33 521.5,-211.33 521.5,-207.67 525.17,-204 528.83,-204 528.83,-204 593.17,-204 593.17,-204 596.83,-204 600.5,-207.67 600.5,-211.33 600.5,-211.33 600.5,-218.67 600.5,-218.67 600.5,-222.33 596.83,-226 593.17,-226"/>
            <text text-anchor="middle" x="561" y="-212.5" font-family="Helvetica,Arial,sans-serif" font-size="10.00">
                fastText
            </text>
        </g>
        <!-- embed_word&#45;&gt;fasttext -->
        <g id="edge31" class="edge">
            <title>embed_word&#45;&gt;fasttext</title>
            <path fill="none" stroke="black" d="M466.53,-215C480.37,-215 496.17,-215 510.8,-215"/>
            <polygon fill="black" stroke="black" points="511.19,-218.5 521.19,-215 511.19,-211.5 511.19,-218.5"/>
        </g>
        <!-- sbert -->
        <g id="node33" class="node">
            <title>sbert</title>
            <path fill="#ebfcea" stroke="black" stroke-width="1.5"
                  d="M593.67,-175C593.67,-175 528.33,-175 528.33,-175 524.67,-175 521,-171.33 521,-167.67 521,-167.67 521,-160.33 521,-160.33 521,-156.67 524.67,-153 528.33,-153 528.33,-153 593.67,-153 593.67,-153 597.33,-153 601,-156.67 601,-160.33 601,-160.33 601,-167.67 601,-167.67 601,-171.33 597.33,-175 593.67,-175"/>
            <text text-anchor="middle" x="561" y="-161.5" font-family="Helvetica,Arial,sans-serif" font-size="10.00">
                Sentence&#45;BERT
            </text>
        </g>
        <!-- embed_sent&#45;&gt;sbert -->
        <g id="edge32" class="edge">
            <title>embed_sent&#45;&gt;sbert</title>
            <path fill="none" stroke="black" d="M466.53,-164C480.25,-164 495.89,-164 510.41,-164"/>
            <polygon fill="black" stroke="black" points="510.73,-167.5 520.73,-164 510.73,-160.5 510.73,-167.5"/>
        </g>
        <!-- use -->
        <g id="node34" class="node">
            <title>use</title>
            <path fill="#ebfcea" stroke="black" stroke-width="1.5"
                  d="M599.33,-124C599.33,-124 522.67,-124 522.67,-124 518.33,-124 514,-119.67 514,-115.33 514,-115.33 514,-106.67 514,-106.67 514,-102.33 518.33,-98 522.67,-98 522.67,-98 599.33,-98 599.33,-98 603.67,-98 608,-102.33 608,-106.67 608,-106.67 608,-115.33 608,-115.33 608,-119.67 603.67,-124 599.33,-124"/>
            <text text-anchor="middle" x="561" y="-114" font-family="Helvetica,Arial,sans-serif" font-size="10.00">
                Universal Sentence
            </text>
            <text text-anchor="middle" x="561" y="-103" font-family="Helvetica,Arial,sans-serif" font-size="10.00">
                Encoder
            </text>
        </g>
        <!-- embed_sent&#45;&gt;use -->
        <g id="edge33" class="edge">
            <title>embed_sent&#45;&gt;use</title>
            <path fill="none" stroke="black" d="M455.67,-152.89C473.68,-145.66 497.53,-136.08 517.87,-127.92"/>
            <polygon fill="black" stroke="black" points="519.26,-131.13 527.24,-124.16 516.65,-124.63 519.26,-131.13"/>
        </g>
    </g>
</svg>
