<?xml version="1.0" encoding="UTF-8" standalone="no"?>
<!DOCTYPE svg PUBLIC "-//W3C//DTD SVG 1.1//EN"
    "http://www.w3.org/Graphics/SVG/1.1/DTD/svg11.dtd">
<!-- Generated by graphviz version 2.43.0 (0)
 -->
<!-- Title: DistanceAggregation Pages: 1 -->
<svg width="473pt" height="257pt"
     viewBox="0.00 0.00 473.00 257.00" xmlns="http://www.w3.org/2000/svg">
    <g id="graph0" class="graph" transform="scale(1 1) rotate(0) translate(4 253)">
        <title>DistanceAggregation</title>
        <polygon fill="white" stroke="transparent" points="-4,4 -4,-253 469,-253 469,4 -4,4"/>
        <g id="clust1" class="cluster">
            <title>cluster_input</title>
            <polygon fill="none" stroke="lightgrey" stroke-dasharray="5,2" points="8,-8 8,-241 152,-241 152,-8 8,-8"/>
            <text text-anchor="middle" x="80" y="-225.8" font-family="Helvetica,Arial,sans-serif" font-size="14.00">
                Inputs
            </text>
        </g>
        <g id="clust2" class="cluster">
            <title>cluster_process</title>
            <polygon fill="none" stroke="lightgrey" stroke-dasharray="5,2"
                     points="186,-87 186,-162 304,-162 304,-87 186,-87"/>
            <text text-anchor="middle" x="245" y="-146.8" font-family="Helvetica,Arial,sans-serif" font-size="14.00">
                Aggregation
            </text>
        </g>
        <g id="clust3" class="cluster">
            <title>cluster_output</title>
            <polygon fill="none" stroke="lightgrey" stroke-dasharray="5,2"
                     points="338,-87 338,-162 457,-162 457,-87 338,-87"/>
            <text text-anchor="middle" x="397.5" y="-146.8" font-family="Helvetica,Arial,sans-serif" font-size="14.00">
                Output
            </text>
        </g>
        <!-- listU -->
        <g id="node1" class="node">
            <title>listU</title>
            <path fill="lightyellow" stroke="lightblue" stroke-width="2"
                  d="M101.5,-210C101.5,-210 58.5,-210 58.5,-210 52.5,-210 46.5,-204 46.5,-198 46.5,-198 46.5,-186 46.5,-186 46.5,-180 52.5,-174 58.5,-174 58.5,-174 101.5,-174 101.5,-174 107.5,-174 113.5,-180 113.5,-186 113.5,-186 113.5,-198 113.5,-198 113.5,-204 107.5,-210 101.5,-210"/>
            <text text-anchor="middle" x="80" y="-195" font-family="Helvetica,Arial,sans-serif" font-size="10.00">Item
                A:
            </text>
            <text text-anchor="middle" x="80" y="-184" font-family="Helvetica,Arial,sans-serif" font-size="10.00">[u₁,
                u₂, ..., uₙ]
            </text>
        </g>
        <!-- aggregator -->
        <g id="node4" class="node">
            <title>aggregator</title>
            <path fill="lightgrey" stroke="lightblue" stroke-width="2"
                  d="M284,-131C284,-131 206,-131 206,-131 200,-131 194,-125 194,-119 194,-119 194,-107 194,-107 194,-101 200,-95 206,-95 206,-95 284,-95 284,-95 290,-95 296,-101 296,-107 296,-107 296,-119 296,-119 296,-125 290,-131 284,-131"/>
            <text text-anchor="middle" x="245" y="-116" font-family="Helvetica,Arial,sans-serif" font-size="10.00">
                Distance Aggregation
            </text>
            <text text-anchor="middle" x="245" y="-105" font-family="Helvetica,Arial,sans-serif" font-size="10.00">
                Function
            </text>
        </g>
        <!-- listU&#45;&gt;aggregator -->
        <g id="edge1" class="edge">
            <title>listU&#45;&gt;aggregator</title>
            <path fill="none" stroke="black" d="M113.59,-176.2C138.14,-164.31 172.07,-147.86 199.17,-134.73"/>
            <polygon fill="black" stroke="black" points="200.64,-137.13 206.61,-131.12 198.19,-132.09 200.64,-137.13"/>
        </g>
        <!-- listV -->
        <g id="node2" class="node">
            <title>listV</title>
            <path fill="lightyellow" stroke="lightblue" stroke-width="2"
                  d="M101.5,-131C101.5,-131 58.5,-131 58.5,-131 52.5,-131 46.5,-125 46.5,-119 46.5,-119 46.5,-107 46.5,-107 46.5,-101 52.5,-95 58.5,-95 58.5,-95 101.5,-95 101.5,-95 107.5,-95 113.5,-101 113.5,-107 113.5,-107 113.5,-119 113.5,-119 113.5,-125 107.5,-131 101.5,-131"/>
            <text text-anchor="middle" x="80" y="-116" font-family="Helvetica,Arial,sans-serif" font-size="10.00">Item
                B:
            </text>
            <text text-anchor="middle" x="80" y="-105" font-family="Helvetica,Arial,sans-serif" font-size="10.00">[v₁,
                v₂, ..., vₙ]
            </text>
        </g>
        <!-- listV&#45;&gt;aggregator -->
        <g id="edge2" class="edge">
            <title>listV&#45;&gt;aggregator</title>
            <path fill="none" stroke="black" d="M113.59,-113C134.21,-113 161.45,-113 185.71,-113"/>
            <polygon fill="black" stroke="black" points="185.8,-115.8 193.8,-113 185.8,-110.2 185.8,-115.8"/>
        </g>
        <!-- distanceFn -->
        <g id="node3" class="node">
            <title>distanceFn</title>
            <path fill="lightpink" stroke="lightblue" stroke-width="2"
                  d="M132,-52C132,-52 28,-52 28,-52 22,-52 16,-46 16,-40 16,-40 16,-28 16,-28 16,-22 22,-16 28,-16 28,-16 132,-16 132,-16 138,-16 144,-22 144,-28 144,-28 144,-40 144,-40 144,-46 138,-52 132,-52"/>
            <text text-anchor="middle" x="80" y="-37" font-family="Helvetica,Arial,sans-serif" font-size="10.00">Base
                Distance Function(s):
            </text>
            <text text-anchor="middle" x="80" y="-26" font-family="Helvetica,Arial,sans-serif" font-size="10.00">Cosine,
                Euclidean, etc.
            </text>
        </g>
        <!-- distanceFn&#45;&gt;aggregator -->
        <g id="edge3" class="edge">
            <title>distanceFn&#45;&gt;aggregator</title>
            <path fill="none" stroke="black" d="M118.4,-52.12C142.52,-63.82 174.02,-79.08 199.44,-91.4"/>
            <polygon fill="black" stroke="black" points="198.36,-93.99 206.78,-94.96 200.8,-88.95 198.36,-93.99"/>
        </g>
        <!-- result -->
        <g id="node5" class="node">
            <title>result</title>
            <path fill="lightgreen" stroke="lightblue" stroke-width="2"
                  d="M437,-131C437,-131 358,-131 358,-131 352,-131 346,-125 346,-119 346,-119 346,-107 346,-107 346,-101 352,-95 358,-95 358,-95 437,-95 437,-95 443,-95 449,-101 449,-107 449,-107 449,-119 449,-119 449,-125 443,-131 437,-131"/>
            <text text-anchor="middle" x="397.5" y="-116" font-family="Helvetica,Arial,sans-serif" font-size="10.00">
                Aggregated Distance:
            </text>
            <text text-anchor="middle" x="397.5" y="-105" font-family="Helvetica,Arial,sans-serif" font-size="10.00">
                Scalar Value
            </text>
        </g>
        <!-- aggregator&#45;&gt;result -->
        <g id="edge4" class="edge">
            <title>aggregator&#45;&gt;result</title>
            <path fill="none" stroke="black" d="M296.11,-113C309.48,-113 324.04,-113 337.83,-113"/>
            <polygon fill="black" stroke="black" points="337.83,-115.8 345.83,-113 337.83,-110.2 337.83,-115.8"/>
        </g>
    </g>
</svg>
