<?xml version="1.0" encoding="UTF-8" standalone="no"?>
<!DOCTYPE svg PUBLIC "-//W3C//DTD SVG 1.1//EN"
    "http://www.w3.org/Graphics/SVG/1.1/DTD/svg11.dtd">
<!-- Generated by graphviz version 2.43.0 (0)
 -->
<!-- Title: DistanceAggregation Pages: 1 -->
<svg width="441pt" height="178pt"
     viewBox="0.00 0.00 441.00 178.00" xmlns="http://www.w3.org/2000/svg">
    <g id="graph0" class="graph" transform="scale(1 1) rotate(0) translate(4 174)">
        <title>DistanceAggregation</title>
        <polygon fill="white" stroke="transparent" points="-4,4 -4,-174 437,-174 437,4 -4,4"/>
        <!-- listU -->
        <g id="node1" class="node">
            <title>listU</title>
            <polygon fill="#d6eaf8" stroke="black" stroke-width="1.6"
                     points="107,-170 21,-170 21,-142 107,-142 107,-170"/>
            <text text-anchor="middle" x="64" y="-159" font-family="Helvetica,Arial,sans-serif" font-size="10.00">Item
                A:
            </text>
            <text text-anchor="middle" x="64" y="-148" font-family="Helvetica,Arial,sans-serif" font-size="10.00">[u₁,
                u₂, ..., uₙ]
            </text>
        </g>
        <!-- aggregator -->
        <g id="node4" class="node">
            <title>aggregator</title>
            <polygon fill="#fcf3cf" stroke="black" stroke-width="1.6" points="280,-99 178,-99 178,-71 280,-71 280,-99"/>
            <text text-anchor="middle" x="229" y="-88" font-family="Helvetica,Arial,sans-serif" font-size="10.00">
                Distance Aggregation
            </text>
            <text text-anchor="middle" x="229" y="-77" font-family="Helvetica,Arial,sans-serif" font-size="10.00">
                Function
            </text>
        </g>
        <!-- listU&#45;&gt;aggregator -->
        <g id="edge1" class="edge">
            <title>listU&#45;&gt;aggregator</title>
            <path fill="none" stroke="black" d="M97.2,-141.97C123.24,-130.63 160.03,-114.61 187.96,-102.44"/>
            <polygon fill="black" stroke="black" points="189.37,-104.88 195.58,-99.12 187.13,-99.75 189.37,-104.88"/>
        </g>
        <!-- listV -->
        <g id="node2" class="node">
            <title>listV</title>
            <polygon fill="#d6eaf8" stroke="black" stroke-width="1.6" points="107,-99 21,-99 21,-71 107,-71 107,-99"/>
            <text text-anchor="middle" x="64" y="-88" font-family="Helvetica,Arial,sans-serif" font-size="10.00">Item
                B:
            </text>
            <text text-anchor="middle" x="64" y="-77" font-family="Helvetica,Arial,sans-serif" font-size="10.00">[v₁,
                v₂, ..., vₙ]
            </text>
        </g>
        <!-- listV&#45;&gt;aggregator -->
        <g id="edge2" class="edge">
            <title>listV&#45;&gt;aggregator</title>
            <path fill="none" stroke="black" d="M107.4,-85C126.47,-85 149.28,-85 169.91,-85"/>
            <polygon fill="black" stroke="black" points="169.99,-87.8 177.99,-85 169.99,-82.2 169.99,-87.8"/>
        </g>
        <!-- distanceFn -->
        <g id="node3" class="node">
            <title>distanceFn</title>
            <polygon fill="#fadbd8" stroke="black" stroke-width="1.6" points="128,-28 0,-28 0,0 128,0 128,-28"/>
            <text text-anchor="middle" x="64" y="-17" font-family="Helvetica,Arial,sans-serif" font-size="10.00">Base
                Distance Function(s):
            </text>
            <text text-anchor="middle" x="64" y="-6" font-family="Helvetica,Arial,sans-serif" font-size="10.00">Cosine,
                Euclidean, etc.
            </text>
        </g>
        <!-- distanceFn&#45;&gt;aggregator -->
        <g id="edge3" class="edge">
            <title>distanceFn&#45;&gt;aggregator</title>
            <path fill="none" stroke="black" d="M97.2,-28.03C123.24,-39.37 160.03,-55.39 187.96,-67.56"/>
            <polygon fill="black" stroke="black" points="187.13,-70.25 195.58,-70.88 189.37,-65.12 187.13,-70.25"/>
        </g>
        <!-- result -->
        <g id="node5" class="node">
            <title>result</title>
            <polygon fill="#abebc6" stroke="black" stroke-width="1.6" points="433,-99 330,-99 330,-71 433,-71 433,-99"/>
            <text text-anchor="middle" x="381.5" y="-88" font-family="Helvetica,Arial,sans-serif" font-size="10.00">
                Aggregated Distance:
            </text>
            <text text-anchor="middle" x="381.5" y="-77" font-family="Helvetica,Arial,sans-serif" font-size="10.00">
                Scalar Value
            </text>
        </g>
        <!-- aggregator&#45;&gt;result -->
        <g id="edge4" class="edge">
            <title>aggregator&#45;&gt;result</title>
            <path fill="none" stroke="black" d="M280.11,-85C293.48,-85 308.04,-85 321.83,-85"/>
            <polygon fill="black" stroke="black" points="321.83,-87.8 329.83,-85 321.83,-82.2 321.83,-87.8"/>
        </g>
    </g>
</svg>
