<?xml version="1.0" encoding="UTF-8" standalone="no"?>
<!DOCTYPE svg PUBLIC "-//W3C//DTD SVG 1.1//EN"
 "http://www.w3.org/Graphics/SVG/1.1/DTD/svg11.dtd">
<!-- Generated by graphviz version 2.43.0 (0)
 -->
<!-- Title: MultiPartEmbedding Pages: 1 -->
<svg width="450pt" height="287pt"
 viewBox="0.00 0.00 450.00 287.00" xmlns="http://www.w3.org/2000/svg" xmlns:xlink="http://www.w3.org/1999/xlink">
<g id="graph0" class="graph" transform="scale(1 1) rotate(0) translate(4 283)">
<title>MultiPartEmbedding</title>
<polygon fill="white" stroke="transparent" points="-4,4 -4,-283 446,-283 446,4 -4,4"/>
<g id="clust1" class="cluster">
<title>cluster_input</title>
<polygon fill="none" stroke="lightgrey" stroke-dasharray="5,2" points="0,-8 0,-271 115,-271 115,-8 0,-8"/>
<text text-anchor="middle" x="57.5" y="-255.8" font-family="Helvetica,Arial,sans-serif" font-size="14.00">Document Parts</text>
</g>
<g id="clust2" class="cluster">
<title>cluster_output</title>
<polygon fill="none" stroke="lightgrey" stroke-dasharray="5,2" points="334,-8 334,-271 434,-271 434,-8 334,-8"/>
<text text-anchor="middle" x="384" y="-255.8" font-family="Helvetica,Arial,sans-serif" font-size="14.00">Embeddings</text>
</g>
<!-- title -->
<g id="node1" class="node">
<title>title</title>
<path fill="lightyellow" stroke="lightblue" stroke-width="2" d="M72,-240C72,-240 42,-240 42,-240 36,-240 30,-234 30,-228 30,-228 30,-216 30,-216 30,-210 36,-204 42,-204 42,-204 72,-204 72,-204 78,-204 84,-210 84,-216 84,-216 84,-228 84,-228 84,-234 78,-240 72,-240"/>
<text text-anchor="middle" x="57" y="-219.5" font-family="Helvetica,Arial,sans-serif" font-size="10.00">Title</text>
</g>
<!-- encoder -->
<g id="node7" class="node">
<title>encoder</title>
<path fill="lightpink" stroke="lightblue" stroke-width="2" d="M258,-146C258,-146 191,-146 191,-146 185,-146 179,-140 179,-134 179,-134 179,-122 179,-122 179,-116 185,-110 191,-110 191,-110 258,-110 258,-110 264,-110 270,-116 270,-122 270,-122 270,-134 270,-134 270,-140 264,-146 258,-146"/>
<text text-anchor="middle" x="224.5" y="-125.5" font-family="Helvetica,Arial,sans-serif" font-size="10.00">Embedding Model</text>
</g>
<!-- title&#45;&gt;encoder -->
<g id="edge1" class="edge">
<title>title&#45;&gt;encoder</title>
<path fill="none" stroke="black" d="M84.22,-207.11C111,-191.9 152.89,-168.1 183.75,-150.58"/>
<polygon fill="black" stroke="black" points="185.47,-153.22 191.74,-146.04 182.36,-147.75 185.47,-153.22"/>
</g>
<!-- body -->
<g id="node2" class="node">
<title>body</title>
<path fill="lightyellow" stroke="lightblue" stroke-width="2" d="M72,-146C72,-146 42,-146 42,-146 36,-146 30,-140 30,-134 30,-134 30,-122 30,-122 30,-116 36,-110 42,-110 42,-110 72,-110 72,-110 78,-110 84,-116 84,-122 84,-122 84,-134 84,-134 84,-140 78,-146 72,-146"/>
<text text-anchor="middle" x="57" y="-125.5" font-family="Helvetica,Arial,sans-serif" font-size="10.00">Body</text>
</g>
<!-- body&#45;&gt;encoder -->
<g id="edge2" class="edge">
<title>body&#45;&gt;encoder</title>
<path fill="none" stroke="black" d="M84.22,-128C107.09,-128 140.98,-128 169.61,-128"/>
<polygon fill="black" stroke="black" points="169.69,-131.15 178.69,-128 169.69,-124.85 169.69,-131.15"/>
</g>
<!-- metadata -->
<g id="node3" class="node">
<title>metadata</title>
<path fill="lightyellow" stroke="lightblue" stroke-width="2" d="M72,-52C72,-52 42,-52 42,-52 36,-52 30,-46 30,-40 30,-40 30,-28 30,-28 30,-22 36,-16 42,-16 42,-16 72,-16 72,-16 78,-16 84,-22 84,-28 84,-28 84,-40 84,-40 84,-46 78,-52 72,-52"/>
<text text-anchor="middle" x="57" y="-31.5" font-family="Helvetica,Arial,sans-serif" font-size="10.00">Metadata</text>
</g>
<!-- metadata&#45;&gt;encoder -->
<g id="edge3" class="edge">
<title>metadata&#45;&gt;encoder</title>
<path fill="none" stroke="black" d="M84.22,-48.89C111,-64.1 152.89,-87.9 183.75,-105.42"/>
<polygon fill="black" stroke="black" points="182.36,-108.25 191.74,-109.96 185.47,-102.78 182.36,-108.25"/>
</g>
<!-- titleVec -->
<g id="node4" class="node">
<title>titleVec</title>
<path fill="lightgreen" stroke="lightblue" stroke-width="2" d="M403,-240C403,-240 365,-240 365,-240 359,-240 353,-234 353,-228 353,-228 353,-216 353,-216 353,-210 359,-204 365,-204 365,-204 403,-204 403,-204 409,-204 415,-210 415,-216 415,-216 415,-228 415,-228 415,-234 409,-240 403,-240"/>
<text text-anchor="middle" x="384" y="-219.5" font-family="Helvetica,Arial,sans-serif" font-size="10.00">Title Vector</text>
</g>
<!-- bodyVec -->
<g id="node5" class="node">
<title>bodyVec</title>
<path fill="lightgreen" stroke="lightblue" stroke-width="2" d="M405,-146C405,-146 363,-146 363,-146 357,-146 351,-140 351,-134 351,-134 351,-122 351,-122 351,-116 357,-110 363,-110 363,-110 405,-110 405,-110 411,-110 417,-116 417,-122 417,-122 417,-134 417,-134 417,-140 411,-146 405,-146"/>
<text text-anchor="middle" x="384" y="-125.5" font-family="Helvetica,Arial,sans-serif" font-size="10.00">Body Vector</text>
</g>
<!-- metadataVec -->
<g id="node6" class="node">
<title>metadataVec</title>
<path fill="lightgreen" stroke="lightblue" stroke-width="2" d="M414,-52C414,-52 354,-52 354,-52 348,-52 342,-46 342,-40 342,-40 342,-28 342,-28 342,-22 348,-16 354,-16 354,-16 414,-16 414,-16 420,-16 426,-22 426,-28 426,-28 426,-40 426,-40 426,-46 420,-52 414,-52"/>
<text text-anchor="middle" x="384" y="-31.5" font-family="Helvetica,Arial,sans-serif" font-size="10.00">Metadata Vector</text>
</g>
<!-- encoder&#45;&gt;titleVec -->
<g id="edge4" class="edge">
<title>encoder&#45;&gt;titleVec</title>
<path fill="none" stroke="black" d="M255.87,-146.12C281.33,-161.32 317.82,-183.1 345.18,-199.43"/>
<polygon fill="black" stroke="black" points="343.65,-202.18 352.99,-204.09 346.88,-196.77 343.65,-202.18"/>
</g>
<!-- encoder&#45;&gt;bodyVec -->
<g id="edge5" class="edge">
<title>encoder&#45;&gt;bodyVec</title>
<path fill="none" stroke="black" d="M270.21,-128C292.65,-128 319.66,-128 341.62,-128"/>
<polygon fill="black" stroke="black" points="341.69,-131.15 350.69,-128 341.69,-124.85 341.69,-131.15"/>
</g>
<!-- encoder&#45;&gt;metadataVec -->
<g id="edge6" class="edge">
<title>encoder&#45;&gt;metadataVec</title>
<path fill="none" stroke="black" d="M255.87,-109.88C281.25,-94.73 317.59,-73.04 344.91,-56.73"/>
<polygon fill="black" stroke="black" points="346.61,-59.39 352.73,-52.07 343.38,-53.98 346.61,-59.39"/>
</g>
</g>
</svg>
